<svg width="43" height="47" viewBox="0 0 43 47" fill="none" xmlns="http://www.w3.org/2000/svg">
<path d="M15.7773 33H14.6055V20.1875L10.7383 21.623V20.5293L15.582 18.7324H15.7773V33ZM29.8105 22.4434C29.8105 23.179 29.5957 23.8398 29.166 24.4258C28.7363 25.0052 28.1699 25.4316 27.4668 25.7051C28.2871 25.985 28.9447 26.4375 29.4395 27.0625C29.9342 27.6875 30.1816 28.4102 30.1816 29.2305C30.1816 30.4479 29.7682 31.4147 28.9414 32.1309C28.1146 32.8405 27.0208 33.1953 25.6602 33.1953C24.2865 33.1953 23.1862 32.8405 22.3594 32.1309C21.5391 31.4212 21.1289 30.4544 21.1289 29.2305C21.1289 28.4232 21.3665 27.7038 21.8418 27.0723C22.3171 26.4408 22.9681 25.985 23.7949 25.7051C23.0918 25.4316 22.5319 25.0052 22.1152 24.4258C21.6986 23.8398 21.4902 23.179 21.4902 22.4434C21.4902 21.265 21.8678 20.3275 22.623 19.6309C23.3848 18.9342 24.3906 18.5859 25.6406 18.5859C26.8906 18.5859 27.8965 18.9375 28.6582 19.6406C29.4264 20.3438 29.8105 21.278 29.8105 22.4434ZM29.0098 29.2402C29.0098 28.3548 28.694 27.6289 28.0625 27.0625C27.431 26.4896 26.6237 26.2031 25.6406 26.2031C24.6576 26.2031 23.8535 26.4831 23.2285 27.043C22.6035 27.6029 22.291 28.3353 22.291 29.2402C22.291 30.1452 22.5938 30.8678 23.1992 31.4082C23.8047 31.9421 24.625 32.209 25.6602 32.209C26.6693 32.209 27.4798 31.9421 28.0918 31.4082C28.7038 30.8743 29.0098 30.1517 29.0098 29.2402ZM28.6387 22.4336C28.6387 21.6198 28.3555 20.9427 27.7891 20.4023C27.2292 19.8555 26.513 19.582 25.6406 19.582C24.7552 19.582 24.0358 19.8457 23.4824 20.373C22.9355 20.8939 22.6621 21.5807 22.6621 22.4336C22.6621 23.2669 22.9355 23.9375 23.4824 24.4453C24.0358 24.9531 24.7585 25.207 25.6504 25.207C26.5293 25.207 27.2454 24.9531 27.7988 24.4453C28.3587 23.931 28.6387 23.2604 28.6387 22.4336Z" fill="black"/>
<path d="M35.7617 11.1445H40.459V11.6621H35.7617V16.5742H35.2246V11.6621H30.7129V11.1445H35.2246V6.22266H35.7617V11.1445Z" fill="black"/>
<path d="M29.2051 7.75518C26.7015 6.6275 23.924 6 21 6C9.95431 6 1 14.9543 1 26C1 37.0457 9.95431 46 21 46C32.0457 46 41 37.0457 41 26C41 23.2742 40.4547 20.6757 39.4672 18.3077" stroke="black" stroke-width="0.6"/>
</svg>
