<svg width="183" height="691" fill="none" xmlns="http://www.w3.org/2000/svg"><path d="M182.268 369.19c0-38.686-7.029-78.221-59.201-78.221H91.362c-52.172 0-59.231 39.414-59.231 78.221v33.836c0 38.686 7.059 78.221 59.23 78.221h31.706c52.172 0 59.201-39.414 59.201-78.221V369.19zm-89.513-53.36h28.888c32.82 0 39.539 18.464 39.539 46.205v48.176c0 27.711-6.781 46.327-39.539 46.327H92.755c-32.82 0-39.57-18.464-39.57-46.175v-48.328c0-27.741 6.75-46.205 39.57-46.205zM182.268 76.98c0-7.703-4.675-12.566-11.486-12.566H91.314c-19.627 0-32.877 5.618-41.73 14.68-15.015 14.922-17.802 39.45-17.802 63.675v89.35L3.921 259.305c-4.799 4.682-4.582 11.237.712 16.402 5.293 5.165 12.197 5.437 16.438 1.269l23.125-22.564h78.54c19.627 0 32.877-5.619 41.731-14.65 15.014-14.922 17.801-39.45 17.801-63.675V76.98zM61.533 100.782l1.486-1.691c5.665-5.649 14.488-9.243 28.14-9.455h69.438v99.349c-.495 13.109-3.096 22.594-8.142 29.088l-1.486 1.692c-5.665 5.649-14.488 9.213-28.109 9.454h-69.5v-99.348c.495-13.14 3.096-22.625 8.142-29.089M182.241 11.851a10.653 10.653 0 00-.728-4.68 11.08 11.08 0 00-2.703-3.966 11.722 11.722 0 00-4.186-2.532 12.14 12.14 0 00-4.91-.638H44.529c-1.653-.104-3.31.13-4.861.687a11.705 11.705 0 00-4.13 2.542 11.065 11.065 0 00-2.663 3.945 10.652 10.652 0 00-.72 4.643c-.108 1.578.137 3.161.72 4.642a11.066 11.066 0 002.662 3.945 11.705 11.705 0 004.13 2.543c1.551.556 3.209.79 4.862.686h125.185a12.13 12.13 0 004.861-.686 11.709 11.709 0 004.131-2.543 11.07 11.07 0 002.662-3.945 10.66 10.66 0 00.719-4.643M182.051 586.828c-.277-57.494-14.417-69.083-37.048-69.083h-8.49c-28.094-.001-39.024 12.8-39.024 45.601v71.899c0 28.898-8.644 31.137-20.9 31.137h-1.112c-17.783 0-22.29-4.478-22.29-45.541V567.22c.37-13.678 2.006-22.302 9.261-26.296.741-.394 1.822-.878 1.822-.878a12.29 12.29 0 005.891-4.811 11.918 11.918 0 001.858-7.293c0-7.172-3.89-11.468-10.157-11.832a8.02 8.02 0 00-2.1 0c-14.14 2.209-26.273 11.772-27.631 52.26v57.494c0 25.842 0 64.908 42.481 64.908h.556c40.135 0 43.223-25.782 43.223-59.461v-61.398c0-23.391 6.174-27.658 18.03-27.658h5.495c15.962 0 19.172 6.748 19.172 40.095v40.669c0 19.7-.463 31.562-9.262 36.464-.771.393-1.852.877-1.852.877a12.125 12.125 0 00-5.93 4.788 11.735 11.735 0 00-1.819 7.316c0 7.142 3.89 11.439 10.188 11.832a9.416 9.416 0 002.069 0c14.819-2.33 27.477-12.709 27.786-58.402l-.217-39.066z" fill="#000" fill-opacity=".1"/></svg>