<svg width="43" height="47" viewBox="0 0 43 47" fill="none" xmlns="http://www.w3.org/2000/svg"><path d="M15.777 33h-1.171V20.187l-3.868 1.436v-1.094l4.844-1.797h.195V33zm14.034-10.557a3.27 3.27 0 01-.645 1.983 3.765 3.765 0 01-1.7 1.28c.821.279 1.479.732 1.973 1.357.495.625.743 1.347.743 2.168 0 1.217-.414 2.184-1.24 2.9-.827.71-1.921 1.064-3.282 1.064-1.373 0-2.474-.355-3.3-1.064-.82-.71-1.231-1.677-1.231-2.9 0-.808.237-1.527.713-2.159.475-.631 1.126-1.087 1.953-1.367a3.642 3.642 0 01-1.68-1.28 3.339 3.339 0 01-.625-1.982c0-1.178.378-2.116 1.133-2.812.762-.697 1.768-1.045 3.018-1.045 1.25 0 2.256.352 3.017 1.055.768.703 1.152 1.637 1.152 2.802zm-.801 6.797c0-.885-.316-1.611-.948-2.177-.631-.573-1.438-.86-2.421-.86-.983 0-1.787.28-2.412.84-.625.56-.938 1.292-.938 2.197s.303 1.628.908 2.168c.606.534 1.426.801 2.461.801 1.01 0 1.82-.267 2.432-.8.612-.535.918-1.257.918-2.169zm-.371-6.806c0-.814-.284-1.491-.85-2.032-.56-.547-1.276-.82-2.148-.82-.886 0-1.605.264-2.159.791-.546.52-.82 1.208-.82 2.06 0 .834.274 1.505.82 2.012.554.508 1.277.762 2.168.762.88 0 1.595-.254 2.149-.762.56-.514.84-1.185.84-2.011zm7.123-11.289h4.697v.517h-4.697v4.912h-.537v-4.912h-4.512v-.518h4.512v-4.92h.537v4.922z" fill="#000"/><path d="M29.205 7.755A19.928 19.928 0 0021 6C9.954 6 1 14.954 1 26s8.954 20 20 20 20-8.954 20-20a19.94 19.94 0 00-1.533-7.692" stroke="#000" stroke-width=".6"/></svg>